<svg xmlns="http://www.w3.org/2000/svg" viewBox="0 0 41.91 36.84"><title>icon-nr</title><g id="Слой_2" data-name="Слой 2"><g id="Слой_1-2" data-name="Слой 1"><line x1="10.83" y1="13.44" x2="10.83" y2="9.44" fill="none" stroke="#4a4b4c" stroke-linecap="round" stroke-linejoin="round"/><line x1="17.4" y1="2.64" x2="21.46" y2="5.67" fill="none" stroke="#4a4b4c" stroke-linecap="round" stroke-linejoin="round"/><rect x="8.6" y="4.89" width="3.68" height="6.34" rx="1.84" ry="1.84" fill="none" stroke="#4a4b4c" stroke-linecap="round" stroke-linejoin="round"/><rect x="13.57" y="-0.83" width="3.68" height="6.34" rx="1.84" ry="1.84" transform="translate(17.75 -13.07) rotate(90)" fill="none" stroke="#4a4b4c" stroke-linecap="round" stroke-linejoin="round"/><path d="M8.72,31.27a5,5,0,1,1,6.86-4.69,5.37,5.37,0,0,1-2.92,4.62" fill="none" stroke="#4a4b4c" stroke-linecap="round" stroke-linejoin="round"/><path d="M13.78,35.88a9.84,9.84,0,0,0,6.58-9.31c0-4.11-3.22-7.63-6.8-9.11,0,0-.74,0-.74-.07V16c0-1.26.45-2-.8-2H8.9c-1.26,0-3.07.77-3.07,2V17.4s.4.09.4.14a9.68,9.68,0,0,0-5.73,9,9.94,9.94,0,0,0,8.64,9.77" fill="none" stroke="#4a4b4c" stroke-linecap="round" stroke-linejoin="round"/><line x1="10.83" y1="18.44" x2="10.83" y2="16.44" fill="none" stroke="#4a4b4c" stroke-linecap="round" stroke-linejoin="round"/><path d="M13.85,35.86c-1.42.48-2.71-1.1-2.71-2.43a2.41,2.41,0,0,1,1.52-2.24" fill="none" stroke="#4a4b4c" stroke-linecap="round" stroke-linejoin="round"/><path d="M13.91,35.84" fill="none" stroke="#4a4b4c" stroke-linecap="round" stroke-linejoin="round"/><path d="M34.07,18.16a5,5,0,1,1,.65-8.28A5.37,5.37,0,0,1,36.49,15" fill="none" stroke="#4a4b4c" stroke-linecap="round" stroke-linejoin="round"/><path d="M40.84,17.11a9.85,9.85,0,0,0-14-11.91s-.07,0-.09,0l-1.12-.9a2.22,2.22,0,0,0-3.16.22L20.45,7a2.36,2.36,0,0,0,.35,3.27l1.12.9s.09,0,.13.07a9.86,9.86,0,0,0,16.29,9.75" fill="none" stroke="#4a4b4c" stroke-linecap="round" stroke-linejoin="round"/><line x1="25.2" y1="8.55" x2="23.81" y2="7.44" fill="none" stroke="#4a4b4c" stroke-linecap="round" stroke-linejoin="round"/><path d="M40.86,17c-.52,1.41-2.55,1.42-3.59.59A2.41,2.41,0,0,1,36.49,15" fill="none" stroke="#4a4b4c" stroke-linecap="round" stroke-linejoin="round"/><path d="M40.88,17" fill="none" stroke="#4a4b4c" stroke-linecap="round" stroke-linejoin="round"/><line x1="10.8" y1="5.67" x2="13.3" y2="2.98" fill="none" stroke="#4a4b4c" stroke-linecap="round" stroke-linejoin="round"/></g></g></svg>