<svg xmlns="http://www.w3.org/2000/svg" viewBox="0 0 35.5 41.35"><title>inco-spr</title><g id="Слой_2" data-name="Слой 2"><g id="Слой_1-2" data-name="Слой 1"><path d="M8.39,4.42V1.56A1,1,0,0,1,9.37.5H27.19a1,1,0,0,1,.71.32l6.83,7.61a1.11,1.11,0,0,1,.28.74V35.54a1,1,0,0,1-1,1.06H27.61" fill="none" stroke="#4a4b4c" stroke-linecap="round" stroke-linejoin="round"/><polyline points="27.5 0.69 27.5 8.19 35 8.19" fill="none" stroke="#4a4b4c" stroke-linecap="round" stroke-linejoin="round"/><line x1="28" y1="15.19" x2="30" y2="15.19" fill="none" stroke="#4a4b4c" stroke-linecap="round" stroke-linejoin="round"/><line x1="28" y1="20.19" x2="30" y2="20.19" fill="none" stroke="#4a4b4c" stroke-linecap="round" stroke-linejoin="round"/><line x1="28" y1="25.19" x2="30" y2="25.19" fill="none" stroke="#4a4b4c" stroke-linecap="round" stroke-linejoin="round"/><line x1="28" y1="31.19" x2="30" y2="31.19" fill="none" stroke="#4a4b4c" stroke-linecap="round" stroke-linejoin="round"/><path d="M1.49,4.75H19.3a1,1,0,0,1,.71.32l6.83,7.61a1.11,1.11,0,0,1,.28.74V39.79a1,1,0,0,1-1,1.06H1.49a1,1,0,0,1-1-1.06v-34A1,1,0,0,1,1.49,4.75Z" fill="none" stroke="#4a4b4c" stroke-linecap="round" stroke-linejoin="round"/><polyline points="19.5 4.69 19.5 13.19 27 13.19" fill="none" stroke="#4a4b4c" stroke-linecap="round" stroke-linejoin="round"/><line x1="6" y1="19.19" x2="21" y2="19.19" fill="none" stroke="#4a4b4c" stroke-linecap="round" stroke-linejoin="round"/><line x1="6" y1="13.19" x2="15" y2="13.19" fill="none" stroke="#4a4b4c" stroke-linecap="round" stroke-linejoin="round"/><line x1="6" y1="24.19" x2="21" y2="24.19" fill="none" stroke="#4a4b4c" stroke-linecap="round" stroke-linejoin="round"/><line x1="6" y1="30.19" x2="21" y2="30.19" fill="none" stroke="#4a4b4c" stroke-linecap="round" stroke-linejoin="round"/><line x1="6" y1="35.19" x2="21" y2="35.19" fill="none" stroke="#4a4b4c" stroke-linecap="round" stroke-linejoin="round"/></g></g></svg>