<svg xmlns="http://www.w3.org/2000/svg" viewBox="0 0 41.59 37.2"><title>icon-map</title><g id="Слой_2" data-name="Слой 2"><g id="Слой_1-2" data-name="Слой 1"><path d="M40,25.6a1.58,1.58,0,0,1-.14.21,5.41,5.41,0,0,1-4.76,2.45,12.38,12.38,0,0,0-2.43,1,3.48,3.48,0,0,1-2.64.23,1.27,1.27,0,0,0-1.13.35l-.07.05c1.39.44,1.45.47,1.52.72,0,.08.07.24.57.63a2.25,2.25,0,0,0,.47.25c.33.15.73.33.81.79l0,0a.47.47,0,0,1,.53-.17,1.42,1.42,0,0,1,.49.36c.09.1.13.13.21.13a1.06,1.06,0,0,0,.34-.09c.15-.06.19-.18.22-.34s.06-.26.22-.26a.24.24,0,0,1,.12,0,.39.39,0,0,0,.18,0,4.51,4.51,0,0,0,.66-.08,4.8,4.8,0,0,1,.76-.09c.11,0,.43,0,.54.25s.16.38.09.49a.3.3,0,0,1-.26.12.71.71,0,0,0-.39.13s.06.13.09.2.19.41,0,.58a1,1,0,0,1-.73.32,2.06,2.06,0,0,1-.68-.16,1.65,1.65,0,0,0-1-.11c-.36.11-.37.14-.39.21a1.21,1.21,0,0,1-.4.59,1,1,0,0,1-.69.29,1,1,0,0,0-.51.15,8.83,8.83,0,0,0-1.16.92c-.58.51-1.09,1-1.56,1s-.67-.29-.89-.88a9,9,0,0,1-.47-1.75c0-.28,0-.28-.4-.4a14.5,14.5,0,0,1-1.42-.57c-.24-.11-.36-.26-.35-.44,0-.51,1.12-1,3-1.71l.51-.19a2.72,2.72,0,0,0-.2-.3,1.62,1.62,0,0,1-.22-.34l-.24.13-.12,0c-.19,0-.31-.18-.42-.36l-.09-.13a2.34,2.34,0,0,1-1.75.64c-.93,0-2-.35-2.07-.81a.34.34,0,0,1,.24-.33h-.24c-.13,0-.28-.11-.59-.33a2.47,2.47,0,0,0-.83-.46s0,0,0,0a6.09,6.09,0,0,1-2.08,3,2,2,0,0,0-.61,1.14c-.1.42-.21.85-.83.92H18.7c-.32,0-.35-.34-.37-.54s0-.24-.05-.27h-.1a4.46,4.46,0,0,0-1.29.29,4,4,0,0,1-1.15.27c-.54,0-.84-.35-.88-1a.4.4,0,0,1,.07-.3c.09-.09.23-.07.37,0a.63.63,0,0,0,.23.07.27.27,0,0,0,.22-.13l0-.06A5,5,0,0,0,17,29.68c0-.14,0-.27,0-.39,0-.41-.07-.8.62-.88a.92.92,0,0,1,.71.21,1.08,1.08,0,0,0,.53.23.87.87,0,0,1,.4.21.71.71,0,0,0,.17.11l0-.07c.32-.69-.06-1.12-.53-1.68a5.53,5.53,0,0,1-.64-.84c-.11-.2.06-.4.2-.57h0a1.62,1.62,0,0,0-.36,0H18c-.23,0-.3-.14-.56-.66a3.24,3.24,0,0,1-.25-1.08c-.06-.52-.11-1-.47-1.15s-.63-.33-.92-.49a4.15,4.15,0,0,0-1.81-.7,5.87,5.87,0,0,0-3.13,1.44,3,3,0,0,1-2,.43h0a20.85,20.85,0,0,1-6.19-1c-1.54-1.06-2.1-1.51-2.17-2s.18-.63.53-1.05a9,9,0,0,0,1-1.48S5.22,14,5.4,13.92c1-.65.75-1.15.4-1.9a3.26,3.26,0,0,1-.42-1.76c.09-.94.16-1.06.62-1.13a2.48,2.48,0,0,0,1.17-.47,3.48,3.48,0,0,1,1.75-.36,11,11,0,0,1,1.94.2" fill="none" stroke="#4a4b4c" stroke-linecap="round" stroke-linejoin="round"/><line x1="8.76" y1="0.5" x2="15.9" y2="6.89" fill="none" stroke="#4a4b4c" stroke-linecap="round" stroke-linejoin="round"/><line x1="36.53" y1="17.84" x2="41.09" y2="21.93" fill="none" stroke="#4a4b4c" stroke-linecap="round" stroke-linejoin="round"/><line x1="15.9" y1="6.89" x2="19.64" y2="2.71" fill="none" stroke="#4a4b4c" stroke-linecap="round" stroke-linejoin="round"/><line x1="41.09" y1="22.66" x2="40.83" y2="17.98" fill="none" stroke="#4a4b4c" stroke-linecap="round" stroke-linejoin="round"/><line x1="36.78" y1="22.5" x2="40.68" y2="22.29" fill="none" stroke="#4a4b4c" stroke-linecap="round" stroke-linejoin="round"/><line x1="23.62" y1="6.28" x2="19.78" y2="2.82" fill="none" stroke="#4a4b4c" stroke-linecap="round" stroke-linejoin="round"/><path d="M27.29,8.87s3.94-1.12,4.74,1c.56,1.5-4,3.49-3.88,5.09.3,3,4.65,1.77,4.65,1.77" fill="none" stroke="#4a4b4c" stroke-linecap="round" stroke-linejoin="round"/><line x1="28.2" y1="12.11" x2="33.2" y2="12.11" fill="none" stroke="#4a4b4c" stroke-linecap="round" stroke-linejoin="round"/><line x1="27.2" y1="14.11" x2="33.2" y2="14.11" fill="none" stroke="#4a4b4c" stroke-linecap="round" stroke-linejoin="round"/></g></g></svg>