<svg xmlns="http://www.w3.org/2000/svg" viewBox="0 0 46.24 36.92"><title>icon-sud</title><g id="Слой_2" data-name="Слой 2"><g id="Слой_1-2" data-name="Слой 1"><path d="M28.26,30.52V27.12c0-2.34-6.91-3.56-13.42-3.56S1.37,24.78,1.37,27.12v3.35a2.87,2.87,0,0,0-1.12,2c0,1.47,1.83,4,14.23,4.17H15c12.4-.15,14.23-2.69,14.23-4.17A2.33,2.33,0,0,0,28.26,30.52ZM14.84,24.07c7.62,0,12.91,1.58,12.91,3s-5.29,3-12.91,3-12.91-1.63-12.91-3S7.21,24.07,14.84,24.07Zm.15,12h-.41C1.77,36,.81,33.32.81,32.5a2.42,2.42,0,0,1,1-1.68.39.39,0,0,0,.1-.2V28.18c1.78,1.63,7.47,2.49,12.91,2.49S26,29.81,27.75,28.18v2.49a.26.26,0,0,0,.1.2,2.36,2.36,0,0,1,1,1.68C28.76,33.32,27.8,36,15,36.11Z" fill="#4a4b4c" stroke="#4a4b4c" stroke-miterlimit="10" stroke-width="0.5"/><path d="M45.89,25.19a2.77,2.77,0,0,0-1.37-1.73L31.71,16.29A1.43,1.43,0,0,0,31,15a1.22,1.22,0,0,0-.76-.2,1.6,1.6,0,0,0-1,.36l-6-3.41L24.8,9.07l.71-.56a2.78,2.78,0,0,0,.91-1.58,1.61,1.61,0,0,0-.76-1.68l-8-4.78a1.53,1.53,0,0,0-1.83.15,2.78,2.78,0,0,0-.91,1.58l-.15.86L9.6,11.82l-.71.56A2.78,2.78,0,0,0,8,14a1.61,1.61,0,0,0,.76,1.68l8,4.78a1.49,1.49,0,0,0,.81.2,1.89,1.89,0,0,0,1-.36,2.78,2.78,0,0,0,.91-1.58l.15-.86,1.58-2.64,5.9,3.66a1.67,1.67,0,0,0,0,.71,1.72,1.72,0,0,0,.66.91,1.17,1.17,0,0,0,.71.2,1.54,1.54,0,0,0,.81-.25l12.3,7.93a2.81,2.81,0,0,0,1.52.46,3,3,0,0,0,.66-.1,2.93,2.93,0,0,0,1.78-1.32A2.57,2.57,0,0,0,45.89,25.19ZM29,15.53l-1.68,2.85L21.5,14.72,23,12.17Zm-6.3-3.86-1.78,3-1.58,2.69-9.15-5.44,5-8.39L24.24,9ZM15.55,2.31a2,2,0,0,1,.76-1.22A1.18,1.18,0,0,1,17.53,1l8,4.78A1.06,1.06,0,0,1,26,6.89a2,2,0,0,1-.76,1.22l-.61.46L15.4,3ZM19,18.58a2,2,0,0,1-.76,1.22,1.18,1.18,0,0,1-1.22.1L9,15.12A1.06,1.06,0,0,1,8.48,14a2,2,0,0,1,.76-1.22l.56-.46,9.25,5.54ZM28,20a.79.79,0,0,1-.41-.56,1.17,1.17,0,0,1,.1-.71l1.78-3a.94.94,0,0,1,.76-.46.82.82,0,0,1,.46.15.89.89,0,0,1,.41,1c0,.05,0,.05-.05.1a.18.18,0,0,1-.05.1l-1.78,3c0,.05-.05.05-.1.1s-.05.05-.05.1A.85.85,0,0,1,28,20Zm17.13,7.12a2.27,2.27,0,0,1-1.47,1.07,2.23,2.23,0,0,1-1.78-.3L29.68,20a0,0,0,0,1,.05-.05l1.78-3a.18.18,0,0,1,.05-.1l12.66,7.07a2.24,2.24,0,0,1,1.12,1.42A2.19,2.19,0,0,1,45.13,27.12Z" fill="#4a4b4c" stroke="#4a4b4c" stroke-miterlimit="10" stroke-width="0.5"/><path d="M26.43,30.83c-.05,0-4,1.73-11.64,1.73S2.94,30.83,2.89,30.83a.27.27,0,0,0-.2.51c.15.05,4.32,1.78,12.1,1.78s11.69-1.73,11.89-1.78a.26.26,0,0,0,.15-.36A.34.34,0,0,0,26.43,30.83Z" fill="#4a4b4c" stroke="#4a4b4c" stroke-miterlimit="10" stroke-width="0.5"/></g></g></svg>